<?xml version="1.0" encoding="utf-8"?>
<!-- Generator: Adobe Illustrator 22.0.1, SVG Export Plug-In . SVG Version: 6.00 Build 0)  -->
<svg version="1.0" id="Layer_1" xmlns="http://www.w3.org/2000/svg" xmlns:xlink="http://www.w3.org/1999/xlink" x="0px" y="0px"
	 viewBox="0 0 105.2 94.3" style="enable-background:new 0 0 105.2 94.3;" xml:space="preserve">
<style type="text/css">
	.st0{fill:#0FB2DE;}
	.st1{fill:#F7D409;}
	.st2{fill:#0A0700;}
	.st3{fill:#F15C22;}
	.st4{fill:none;}
</style>
<g>
	<g>
		<g>
			<g>
				<path class="st0" d="M54.7,67.6l14.1-1.4c0,0,6.8-1.1,10.1,0.7c3.3,1.8,12.3,7.9,12.3,7.9L88.8,80l3.2,2.5l-4,6.3L72,81l-13,3.6
					c0,0-11.2,2.5-15.3,1.3c0,0-3.7-0.9-3.9-2.1L54.7,67.6z"/>
			</g>
			<g>
				<path class="st1" d="M16.8,36.1c0,0-1.3,6.2-1,7.8c0.3,1.6,1.1,5.1,1.1,5.1s2.8-0.6,3.9-0.7c1.1-0.1,7.7-0.9,7.7-0.9l-1.9-5
					c0,0,4.9-2.5,4.5-4.3c-0.4-1.8-1-4-1-4l4.8-4.3c0,0,0.6-1.4-0.3-1.8s-4.6-0.7-4.6-0.7l-2.3-5.6l-3.9,0.2c0,0-2.8,0.6-3.1,1
					s-4.2,3.2-4.6,3.7c-0.4,0.4-3,2.4-3,2.4s-1,2.6-0.9,2.9s1.9,3.5,1.9,3.5L16.8,36.1z"/>
			</g>
			<g>
				<path class="st1" d="M17.8,66.2l0.8,13.1c0,0,0.8,3.4-1.4,3.7s-6.9,0.9-7.6,1.4c-0.7,0.5-2,1.3-0.6,1.7s11.8,0.2,11.8,0.2
					s3.9-0.2,4-2c0.1-1.8,0.6-18.7,0.6-18.7L17.8,66.2z"/>
			</g>
			<g>
				<path class="st1" d="M55.1,16.1l1.8,0.4c0,0,4.6-0.7,6.3,1.3c1.7,1.9,1.9,7,0.7,8.8s-2.6,3.7-8.6,3s-4.7-9.3-4.7-9.3
					S52.1,16.6,55.1,16.1z"/>
			</g>
		</g>
		<g>
			<g>
				<path class="st2" d="M16.9,49.4c-0.1,0-0.1,0-0.2,0c-0.1-0.1-0.2-0.2-0.3-0.3l-1-4.2c0-0.1-0.6-3.1,0-5.1
					c0.2-0.8,0.5-1.5,0.8-2.1c0.2-0.4,0.3-0.8,0.4-1.1c-0.5,0.2-1.1,0.3-1.7,0.1c-0.4-0.1-0.9-0.5-1.2-1.3c-0.4-1.2-0.9-3.8,0.3-4.9
					c0.7-0.6,1.7-0.6,3,0c0.1,0,0.2,0.1,0.2,0.2c0.2,0.3,0.6,0.8,0.9,0.8c0.3-0.2,0.6-2,0.4-2.6c-0.1-0.8,0.9-4.2,2.2-5.2
					c1.1-0.8,5.7-3,7.8-2.5c0.1,0,0.3,0.1,0.3,0.3c0,0.1,1.1,3.1,1.1,5.4c1.4,0.1,4.7,0.3,5.4,1.5c0.2,0.3,0.2,0.7,0.1,1
					c-0.6,1.6-4,4.1-5,4.9c0.3,1,1.1,3.6,1,4.5C31.5,40,28.3,42,27,42.7c0.2,0.9,1.3,3.7,2.1,4.4c0.1,0.1,0.2,0.3,0.1,0.5
					s-0.2,0.3-0.4,0.3c-0.2,0-3.8,0.8-5.4,0.8c-0.3,0-0.6,0-0.9,0c-1.5-0.1-3.5-0.1-5.5,0.8C17,49.4,17,49.4,16.9,49.4z M17.2,35.4
					c0.1,0,0.1,0,0.2,0c0.1,0.1,0.2,0.2,0.3,0.4c0.1,0.8-0.2,1.5-0.6,2.3c-0.2,0.6-0.5,1.2-0.7,1.9c-0.5,1.8,0,4.6,0,4.6l0.9,3.6
					c2-0.8,3.9-0.7,5.4-0.7c0.3,0,0.6,0,0.9,0c1.1,0,3.3-0.4,4.5-0.6c-0.9-1.4-2.1-4.3-1.8-4.8c0.1-0.2,0.3-0.3,0.5-0.3
					c0.6-0.2,4-2.5,4.1-3.2c0.1-0.7-0.6-3.1-1-4.5c-0.1-0.2,0-0.4,0.2-0.5c1.2-0.9,4.4-3.4,5-4.7c0-0.1,0-0.1,0-0.1
					c-0.4-0.6-3-1-5.2-1.1c-0.1,0-0.3-0.1-0.3-0.2c-0.1-0.1-0.1-0.2-0.1-0.4c0.2-1.8-0.6-4.4-0.9-5.2c-1.8-0.2-5.5,1.5-6.8,2.4
					c-1,0.7-1.9,3.7-1.8,4.2c0.1,0.5,0.1,3.4-1.2,3.7c-0.9,0.2-1.6-0.7-1.8-1.1c-0.6-0.3-1.4-0.5-1.9-0.1c-0.7,0.6-0.6,2.5-0.1,3.9
					c0.1,0.4,0.3,0.6,0.6,0.7c0.6,0.2,1.4-0.2,1.6-0.4C17,35.4,17.1,35.4,17.2,35.4z"/>
			</g>
			<g>
				<path class="st3" d="M28.8,47.4c0,0,4.6,2.3,8.4,7.9s11.3,12.1,17.7,12.3c0,0-2.8,10.4-13.1,15l-2.4,1.2c0,0-11.3-6.6-13.9-10
					V67l-13.3,0.2c0,0,0.2-15.3,2.5-16.8c2.2-1.5,1.5-1.5,3.2-1.9C19.6,48.2,27.6,47.9,28.8,47.4z"/>
				<path class="st2" d="M39.4,84.3c-0.1,0-0.2,0-0.2-0.1c-0.5-0.3-11.4-6.7-14.1-10.1C25,74.1,25,74,25,73.9v-6.4l-12.8,0.2
					c-0.1,0-0.2,0-0.3-0.1c-0.1-0.1-0.1-0.2-0.1-0.3c0-2.6,0.4-15.6,2.7-17.2c0.8-0.5,1.2-0.9,1.5-1.1c0.5-0.4,0.7-0.6,1.9-0.8
					c0.8-0.2,2.7-0.3,4.8-0.5c2.4-0.2,5.5-0.4,6-0.7c0.1-0.1,0.3-0.1,0.4,0c0.2,0.1,4.7,2.4,8.6,8c3.9,5.7,11.3,11.9,17.3,12.1
					c0.1,0,0.3,0.1,0.4,0.2c0.1,0.1,0.1,0.3,0.1,0.4c0,0.1-2.9,10.7-13.3,15.3l-2.4,1.2C39.6,84.3,39.5,84.3,39.4,84.3z M25.9,73.7
					c2.6,3,11.9,8.7,13.5,9.6l2.2-1.1c8.6-3.9,11.9-12,12.6-14.2c-6.2-0.6-13.4-6.6-17.5-12.5c-3.3-4.8-7.2-7.2-8.1-7.6
					c-0.9,0.3-3,0.4-6.1,0.7c-2,0.2-3.9,0.3-4.6,0.5c-1,0.2-1,0.3-1.5,0.6c-0.3,0.2-0.7,0.6-1.6,1.2c-1.4,0.9-2.1,10-2.2,15.9
					l12.8-0.2c0.1,0,0.2,0,0.3,0.1c0.1,0.1,0.1,0.2,0.1,0.3V73.7z"/>
			</g>
			<g>
				<path class="st2" d="M88.5,79.8c-0.1,0-0.2,0-0.2-0.1c-0.2-0.1-0.3-0.4-0.2-0.6l2.3-4.1c-1.9-1.4-11.3-8-14.2-8.5
					C73,66,55.1,68,54.9,68.1c-0.3,0-0.5-0.2-0.5-0.4c0-0.3,0.2-0.5,0.4-0.5C55.6,67,73,65,76.4,65.6c3.4,0.6,14.4,8.6,14.9,8.9
					c0.2,0.1,0.2,0.4,0.1,0.6l-2.6,4.4C88.8,79.7,88.7,79.8,88.5,79.8z"/>
			</g>
			<g>
				<path class="st2" d="M88,89.2c-0.1,0-0.1,0-0.2-0.1c-7-3.7-14.9-7.6-15.8-7.7c-0.4,0-2,0.5-3.9,1c-4.4,1.3-11.7,3.5-17.7,4.1
					c-8.9,0.9-11-2.4-11.1-2.6c-0.1-0.2-0.1-0.5,0.2-0.6c0.2-0.1,0.5-0.1,0.6,0.2c0,0.1,2,2.9,10.2,2.1c5.9-0.6,13.2-2.7,17.5-4
					c2.4-0.7,3.6-1.1,4.1-1.1c0,0,0,0,0,0c1.5,0,12.7,5.9,15.9,7.6l3.5-5.6c-5.7-4.5-14.2-11-15.3-11.5c-1.3-0.5-3.7-0.8-6.3-0.7
					c-2.2,0.1-11.7-0.2-12.1-0.3c-0.3,0-0.5-0.2-0.5-0.5c0-0.3,0.2-0.4,0.5-0.5c0.1,0,9.8,0.3,12,0.3c2.7-0.1,5.2,0.2,6.6,0.8
					C78,70.9,90.8,81,92.3,82.1c0.2,0.1,0.2,0.4,0.1,0.6L88.4,89C88.4,89.1,88.2,89.2,88,89.2z"/>
			</g>
			<g>
				<path class="st2" d="M25.5,67.4c0,0-0.1,0-0.1,0c-0.2-0.1-0.4-0.3-0.3-0.6c0,0,1-3.7-0.1-10.2c-1-6.3-5.8-7.7-6-7.8
					c-0.2-0.1-0.4-0.3-0.3-0.6c0.1-0.2,0.3-0.4,0.6-0.3c0.2,0.1,5.6,1.6,6.7,8.5c1.1,6.8,0.1,10.5,0.1,10.6
					C25.9,67.3,25.7,67.4,25.5,67.4z"/>
			</g>
			<g>
				<path class="st2" d="M13.1,86.8c-2.2,0-3.9-0.1-4.6-0.4c-0.5-0.2-0.8-0.6-0.8-1c0-0.8,1.2-1.4,3.3-2.1c0.7-0.2,2-0.4,3.3-0.5
					c1.3-0.1,3.5-0.3,3.8-0.7c0.2-0.8-0.3-9.7-0.7-15.1c0-0.1,0-0.3,0.1-0.3c0.1-0.1,0.2-0.1,0.3-0.2l7.6-0.1c0.1,0,0.3,0,0.3,0.1
					c0.1,0.1,0.1,0.2,0.1,0.3c0,0.1-0.5,14.3-0.5,16.6c0,0.8-0.3,1.6-0.9,2.1c-1.1,0.9-2.8,1.1-3.7,1c-0.4,0-1.7,0-3.3,0
					C16,86.8,14.4,86.8,13.1,86.8z M8.7,85.5c0,0,0.1,0.1,0.2,0.1c1,0.4,5.8,0.3,8.7,0.2c1.9,0,3-0.1,3.4,0c0.7,0.1,2.1,0,2.9-0.8
					c0.4-0.4,0.6-0.8,0.6-1.4c0-2.1,0.4-13.6,0.5-16.1l-6.7,0.1c0.3,4.6,1,14.3,0.6,15.1c-0.3,0.7-1.6,0.9-4.5,1.2
					c-1.2,0.1-2.5,0.2-3.1,0.4C9.4,84.9,8.9,85.3,8.7,85.5z"/>
			</g>
			<g>
				<path class="st2" d="M28.9,22.5c0,0,2.8-4.5,1.2-8.4c0,0-1.1,1.4-2.1,1.4c0,0,0.5-2.1-0.5-2.9c0,0-10.3,4.6-14.4,5.7
					c-4.1,1.1-6.3,2.1-6.7,5.1c-0.5,2.9,2.3,15.4,3.4,17.2s2.4,5.6,6.3,5.1c0,0-0.8-4.2,0.2-6.8c0.9-2.6,0.9-3,0.9-3s-2.1,1-2.9-0.5
					c-0.8-1.6-0.6-4.4,0.6-4.7s2,0.3,2.8,0.8c0.8,0.5,1.3,0.4,1.4-0.5s0.2-3,0.6-4.1s0.8-2.5,2.1-3.1s3.7-1.8,4.9-2
					C27.8,21.6,28.6,21.4,28.9,22.5z"/>
				<path class="st2" d="M15.4,46.1c-3.1,0-4.5-2.7-5.5-4.5c-0.2-0.3-0.3-0.6-0.5-0.9c-1.1-1.9-4-14.5-3.5-17.5
					c0.5-3.1,2.9-4.3,7.1-5.4c4-1.1,14.2-5.6,14.3-5.6c0.2-0.1,0.3,0,0.5,0.1c0.8,0.6,0.8,1.8,0.8,2.6c0.4-0.2,0.8-0.7,1.1-1
					c0.1-0.1,0.3-0.2,0.4-0.2c0.2,0,0.3,0.1,0.4,0.3c1.7,4.1-1.1,8.6-1.2,8.8C29.2,22.9,29,23,28.8,23c-0.2,0-0.3-0.2-0.4-0.3
					c-0.2-0.6-0.3-0.6-1.5-0.4l-0.3,0c-1,0.1-3.1,1.1-4.8,1.9c-1,0.5-1.4,1.6-1.8,2.6L20,27.1c-0.2,0.6-0.3,1.8-0.4,2.7
					c0,0.5-0.1,1-0.1,1.3c-0.1,0.6-0.3,0.9-0.7,1.1c-0.5,0.2-1.1-0.1-1.5-0.3c-0.8-0.5-1.5-1-2.4-0.7c-0.2,0.1-0.4,0.3-0.4,0.5
					c-0.4,0.9-0.3,2.5,0.2,3.5c0.6,1.1,2.2,0.4,2.3,0.3c0.1-0.1,0.3-0.1,0.4,0c0.1,0.1,0.2,0.2,0.2,0.4c0,0.3-0.3,1.4-1,3.1
					c-0.9,2.4-0.2,6.5-0.2,6.6c0,0.1,0,0.3-0.1,0.4c-0.1,0.1-0.2,0.2-0.3,0.2C15.9,46.1,15.7,46.1,15.4,46.1z M27.4,13.2
					c-1.8,0.8-10.5,4.6-14.2,5.6c-4,1.1-6,2-6.4,4.7c-0.4,2.8,2.4,15.2,3.4,16.9c0.2,0.3,0.3,0.6,0.5,0.9c0.9,1.7,2.2,4,4.8,4
					c-0.2-1.2-0.5-4.4,0.3-6.5c0.4-1,0.6-1.6,0.7-2.1c-0.9,0.2-2.1,0.1-2.7-1c-0.6-1.2-0.7-3.2-0.2-4.3c0.3-0.7,0.7-0.9,1-1
					c1.3-0.3,2.2,0.3,3,0.8c0.5,0.3,0.7,0.3,0.7,0.3c0,0,0.1-0.1,0.1-0.4c0.1-0.3,0.1-0.7,0.1-1.2c0.1-1,0.2-2.2,0.5-2.9l0.1-0.3
					c0.4-1.1,0.9-2.4,2.2-3.1c1.1-0.5,3.7-1.8,5.1-2l0.3,0c0.7-0.1,1.5-0.2,2,0.3c0.6-1.3,1.7-4,1-6.6c-0.5,0.4-1.2,1-1.9,1
					c-0.1,0-0.3-0.1-0.4-0.2c-0.1-0.1-0.1-0.3-0.1-0.4C27.7,15,27.8,13.7,27.4,13.2z"/>
			</g>
			<g>
				<circle class="st2" cx="27.3" cy="25.8" r="3.9"/>
			</g>
			<g>
				<path class="st2" d="M17.9,29.2c-0.2,0-0.3-0.1-0.4-0.3c-0.1-0.2,0-0.5,0.2-0.6c2.8-1.3,7.4-1.5,7.6-1.5c0.3,0,0.5,0.2,0.5,0.4
					s-0.2,0.5-0.4,0.5c0,0-4.6,0.2-7.2,1.4C18.1,29.2,18,29.2,17.9,29.2z"/>
			</g>
			<g>
				<path class="st4" d="M46.3,80.4c-0.1,0-0.1,0-0.2,0c-13.4-5.1-20.5-17-20.6-17.1c-0.1-0.2-0.1-0.5,0.2-0.6
					c0.2-0.1,0.5-0.1,0.6,0.2c0.1,0.1,7.1,11.7,20.1,16.7c0.2,0.1,0.4,0.4,0.3,0.6C46.6,80.3,46.5,80.4,46.3,80.4z"/>
			</g>
			<g>
				<path class="st2" d="M12.2,67.2c0,0,2,1,5.7,1.5l-0.1-1.6L12.2,67.2z"/>
				<path class="st2" d="M18,69.2C17.9,69.2,17.9,69.2,18,69.2c-3.8-0.6-5.8-1.5-5.9-1.6c-0.2-0.1-0.3-0.3-0.3-0.5
					c0-0.2,0.2-0.4,0.4-0.4l5.6-0.1c0.3,0,0.5,0.2,0.5,0.4l0.1,1.6c0,0.1,0,0.3-0.1,0.4C18.2,69.2,18.1,69.2,18,69.2z M14.9,67.6
					c0.7,0.2,1.6,0.4,2.5,0.6l0-0.6L14.9,67.6z"/>
			</g>
			<g>
				<path class="st2" d="M90.7,75.5c0,0,6.6-5.7,8.1-4.3S92,82.5,92,82.5l-3.7-2.9L90.7,75.5z"/>
			</g>
			<g>
				<path class="st2" d="M91.4,83.4c0,0,7.9-4.4,9.6-4s1.1,2.3,0.6,3.1c-0.5,0.8-7.8,8.3-9.2,8.7s-4.1-2.8-4.1-2.8L91.4,83.4z"/>
			</g>
			<g>
				<path class="st2" d="M57,30.3c-2.3,0-4.4-0.6-5.5-2.3c-1.7-2.7-2.3-7.7-0.5-9.8c1.9-2.3,4.1-3.1,6.6-2.4c0,0,0.1,0,0.1,0
					c1.6-0.2,3.2,0.1,4.5,0.7c1.3,0.7,2.2,1.7,2.5,2.9c0.9,3.5,0.1,9-3.3,10.1C60.1,30,58.5,30.3,57,30.3z M55.5,16.5
					c-1.3,0.1-2.5,0.9-3.7,2.3c-1.4,1.6-1.1,6.2,0.5,8.7c1.5,2.4,6.2,2,8.9,1.2c2.8-0.9,3.5-6,2.7-9c-0.3-1.2-1.3-2-2-2.3
					c-1.6-0.8-3.9-0.9-5.6-0.3c-3,1.1-1.9,5.8-1.7,6.7c0.2,0.9,1.4,1.5,2.8,1.5c0,0,0,0,0,0c1.2,0,2.7-0.5,3.1-2
					c0.2-0.7,0.2-1.2-0.1-1.6c-0.4-0.5-1.5-0.5-1.9-0.4c-0.3,0-0.5-0.1-0.5-0.4c0-0.3,0.1-0.5,0.4-0.5c0.1,0,1.8-0.3,2.7,0.7
					c0.5,0.6,0.6,1.4,0.3,2.4c-0.5,1.6-2,2.7-4.1,2.6c-1.8,0-3.3-0.9-3.7-2.2C53,21.2,53.1,17.9,55.5,16.5z"/>
			</g>
			<g>
				<path class="st2" d="M58.5,14.9C58.5,14.9,58.5,14.9,58.5,14.9c-0.3,0-0.5-0.2-0.5-0.5l0.2-3.9c0-0.3,0.2-0.4,0.5-0.4
					c0.3,0,0.5,0.2,0.4,0.5L59,14.5C59,14.7,58.8,14.9,58.5,14.9z"/>
			</g>
			<g>
				<path class="st2" d="M66,19.6c-0.1,0-0.2,0-0.3-0.1c-0.2-0.2-0.2-0.5,0-0.7l2.2-2.1c0.2-0.2,0.5-0.2,0.7,0
					c0.2,0.2,0.2,0.5,0,0.7l-2.2,2.1C66.2,19.5,66.1,19.6,66,19.6z"/>
			</g>
			<g>
				<path class="st2" d="M70.1,25.8H66c-0.3,0-0.5-0.2-0.5-0.5c0-0.3,0.2-0.5,0.5-0.5h4.1c0.3,0,0.5,0.2,0.5,0.5
					C70.6,25.6,70.3,25.8,70.1,25.8z"/>
			</g>
			<g>
				<path class="st2" d="M64.5,34.5c-0.1,0-0.2,0-0.3-0.1l-2.2-2c-0.2-0.2-0.2-0.5,0-0.7c0.2-0.2,0.5-0.2,0.7,0l2.2,2
					c0.2,0.2,0.2,0.5,0,0.7C64.8,34.5,64.6,34.5,64.5,34.5z"/>
			</g>
			<g>
				<path class="st2" d="M54,36.3c-0.1,0-0.1,0-0.2,0c-0.2-0.1-0.3-0.4-0.2-0.6l1.3-3c0.1-0.2,0.4-0.3,0.6-0.2
					c0.2,0.1,0.3,0.4,0.2,0.6l-1.3,3C54.4,36.2,54.2,36.3,54,36.3z"/>
			</g>
			<g>
				<path class="st2" d="M47.6,30.8c-0.2,0-0.3-0.1-0.4-0.2c-0.1-0.2-0.1-0.5,0.2-0.6l2.6-1.6c0.2-0.1,0.5-0.1,0.6,0.2
					c0.1,0.2,0.1,0.5-0.2,0.6l-2.6,1.6C47.7,30.8,47.7,30.8,47.6,30.8z"/>
			</g>
			<g>
				<path class="st2" d="M46.5,23.4h-3.2c-0.3,0-0.5-0.2-0.5-0.5s0.2-0.5,0.5-0.5h3.2c0.3,0,0.5,0.2,0.5,0.5S46.8,23.4,46.5,23.4z"
					/>
			</g>
			<g>
				<path class="st2" d="M50.1,16.3c-0.1,0-0.2,0-0.3-0.1l-2.1-2.3c-0.2-0.2-0.2-0.5,0-0.7c0.2-0.2,0.5-0.2,0.7,0l2.1,2.3
					c0.2,0.2,0.2,0.5,0,0.7C50.4,16.3,50.2,16.3,50.1,16.3z"/>
			</g>
		</g>
	</g>
	<g>
		<path class="st2" d="M29.3,37c-0.5,0-1.1-0.1-1.6-0.3c-0.2-0.1-0.4-0.4-0.3-0.6c0.1-0.2,0.4-0.4,0.6-0.3c1,0.4,2.4,0.1,2.4,0.1
			c0.3-0.1,0.5,0.1,0.6,0.4c0.1,0.3-0.1,0.5-0.4,0.6C30.6,36.9,30.1,37,29.3,37z"/>
	</g>
</g>
</svg>
