<?xml version="1.0" encoding="utf-8"?>
<!-- Generator: Adobe Illustrator 22.0.1, SVG Export Plug-In . SVG Version: 6.00 Build 0)  -->
<svg version="1.0" id="Layer_1" xmlns="http://www.w3.org/2000/svg" xmlns:xlink="http://www.w3.org/1999/xlink" x="0px" y="0px"
	 viewBox="0 0 105.2 94.3" style="enable-background:new 0 0 105.2 94.3;" xml:space="preserve">
<style type="text/css">
	.st0{fill:#F15C22;}
	.st1{fill:#F7D409;}
	.st2{fill:#0A0700;}
</style>
<g>
	<g>
		<path class="st0" d="M20.8,12.6l1.1-8.2l2.9,4.3l5.1-6.3L30,10L36.6,8l-3.2,6.7l5.3,1.3l-4.9,3.7l3.6,1.9L30,23.2
			c0,0-0.3-4.5-2.7-6.4S20.8,12.6,20.8,12.6z"/>
	</g>
	<g>
		<path class="st1" d="M28.2,28c0,0-0.9-8.9-6.4-11.8S10,17.6,8.5,19.8S2,29.3,5.4,40.7s11.2,17.8,18.5,22s20.8,5.1,29.1,2.4
			c8.4-2.7,11.8-12.6,10.4-15.5c-1.4-2.8-2.6-7.4-10.8-8c0,0-8.3,1.1-8.4,8.9l1.1,4.1c0,0-11.4,1.9-19.9-4.8c0,0-6.4-5.5-7.5-13.6
			C18.1,36.1,28.4,34.1,28.2,28z"/>
	</g>
	<g>
		<g>
			<g>
				<path class="st2" d="M41.5,67.2c-7.4,0-16.5-1.9-24.8-8.8c-19.3-15.9-11-35-10.6-35.8c2.1-4.7,6.8-7.9,11.4-7.9
					c0.1,0,0.1,0,0.2,0c4.4,0.1,7.9,2.9,9.9,7.9c1.4,3.5,1.4,6.4,0,8.8c-2.2,3.7-7.3,4.8-8.9,5C23.2,56,41.1,54.7,44.8,54.2
					c-2.7-5.8,1.7-10.3,1.7-10.4c2.3-1.9,4.8-2.8,7.4-2.7c2.9,0.1,5.6,1.4,7.5,3.7c2,2.5,3,5.7,2.5,8.9c-1.1,7.2-8.4,10.9-8.5,11
					C53.6,65.6,48.3,67.2,41.5,67.2z M17.6,15.8c-4.3,0-8.6,3-10.6,7.3c-0.4,0.8-8.3,19.1,10.3,34.6c17.4,14.4,37.4,6.2,37.6,6.1
					c1.9-1,7.1-4.7,7.9-10.3c0.4-2.9-0.4-5.9-2.3-8.2c-1.7-2.1-4.1-3.3-6.7-3.3c-2.4-0.1-4.6,0.8-6.7,2.5c-0.1,0.1-4.2,4.3-1.2,9.8
					c0.1,0.1,0.1,0.3,0,0.4c-0.1,0.1-0.2,0.2-0.3,0.3c-0.2,0-23.1,4.2-28-18.9c0-0.1,0-0.3,0.1-0.4c0.1-0.1,0.2-0.2,0.3-0.2
					c0.1,0,6.3-0.7,8.7-4.6c1.3-2.1,1.2-4.7-0.1-7.9c-1.9-4.6-5.1-7.2-9.1-7.3C17.7,15.8,17.6,15.8,17.6,15.8z"/>
			</g>
			<g>
				<path class="st2" d="M25.3,29.1c-2.6,0-4.7-0.7-6.4-2.2c-4.2-3.7-4-10.5-4-10.8c0-0.3,0.3-0.5,0.5-0.5c0.3,0,0.5,0.2,0.5,0.5
					c0,0.1-0.2,6.7,3.7,10c2.1,1.8,4.9,2.3,8.5,1.7c0.3-0.1,0.5,0.1,0.6,0.4c0,0.3-0.1,0.5-0.4,0.6C27.3,29,26.3,29.1,25.3,29.1z"/>
			</g>
			<g>
				<path class="st2" d="M58.7,51.6c-9.7,0-12.2-7.2-12.3-7.3c-0.1-0.3,0.1-0.5,0.3-0.6c0.3-0.1,0.5,0.1,0.6,0.3
					c0.1,0.4,3.2,8.8,16,6.1c0.3-0.1,0.5,0.1,0.6,0.4c0.1,0.3-0.1,0.5-0.4,0.6C61.8,51.5,60.1,51.6,58.7,51.6z"/>
			</g>
		</g>
		<g>
			<path class="st2" d="M30,23.7c-0.1,0-0.2,0-0.3-0.1c-0.1-0.1-0.2-0.2-0.2-0.4c0-0.3-0.3-6.5-9-9.8c-0.2-0.1-0.3-0.3-0.3-0.5
				l1.1-8.5c0-0.2,0.2-0.4,0.4-0.4c0.2,0,0.4,0,0.5,0.2l2.5,3.8l4.6-5.6c0.1-0.2,0.3-0.2,0.5-0.2c0.2,0.1,0.3,0.2,0.3,0.4l0.3,7
				l6.2-2.2c0.2-0.1,0.4,0,0.5,0.1c0.1,0.1,0.2,0.4,0.1,0.5l-3.2,6.2l4.9,1c0.2,0,0.3,0.2,0.4,0.4c0,0.2,0,0.4-0.2,0.5l-4.6,3.5
				l3.5,1.7c0.2,0.1,0.3,0.3,0.3,0.5c0,0.2-0.2,0.4-0.4,0.4L30,23.7C30.1,23.7,30.1,23.7,30,23.7z M21.2,12.6c7.6,3.1,9,8.3,9.2,10
				l5.8-1.1l-2.9-1.4c-0.2-0.1-0.3-0.2-0.3-0.4c0-0.2,0.1-0.3,0.2-0.4l4.4-3.3l-4.5-1c-0.1,0-0.3-0.1-0.3-0.3s-0.1-0.3,0-0.4
				l2.9-5.7l-5.7,2c-0.1,0.1-0.3,0-0.4-0.1c-0.1-0.1-0.2-0.2-0.2-0.4L29.2,4L25,9.1c-0.1,0.1-0.2,0.2-0.4,0.2
				c-0.2,0-0.3-0.1-0.4-0.2l-2.1-3.2L21.2,12.6z"/>
		</g>
	</g>
	<g>
		<g>
			<circle class="st2" cx="19.5" cy="18.2" r="0.5"/>
		</g>
		<g>
			<circle class="st2" cx="20.3" cy="23.3" r="0.5"/>
		</g>
		<g>
			<circle class="st2" cx="23.8" cy="21" r="0.5"/>
		</g>
		<g>
			<circle class="st2" cx="24.6" cy="25.2" r="0.5"/>
		</g>
	</g>
	<g>
		<g>
			<circle class="st2" cx="51.6" cy="44.4" r="0.5"/>
		</g>
		<g>
			<circle class="st2" cx="54.9" cy="48.4" r="0.5"/>
		</g>
		<g>
			<circle class="st2" cx="56.8" cy="44.6" r="0.5"/>
		</g>
		<g>
			<circle class="st2" cx="59.6" cy="47.9" r="0.5"/>
		</g>
	</g>
	<g>
		<path class="st2" d="M100.8,79.7c-0.8,0-1.6-0.2-2.1-0.4c-0.2-0.1-0.4-0.1-0.5-0.1c-0.3,0.1-0.5-0.1-0.6-0.4
			c-0.1-0.3,0.1-0.5,0.4-0.6c0.2-0.1,0.5,0,1,0.2c1.3,0.4,2.7,0.7,3.2-0.5c1-2.1-0.3-6.4-1.1-7.7c-1-1.9-2.7-3.4-4.6-4.1
			c0,0.5,0,1,0,1.5c-0.1,1-0.8,4.4-3.4,5c-1.1,0.2-2.3,0-3.3-0.6c-0.9-0.6-1.5-1.4-1.7-2.3c-0.5-2.2,1.8-4,3-4.6
			c1.4-0.7,2.8-0.5,3.5-0.5c0.2,0,0.4,0,0.5,0.1c-0.5-1.5-1.5-2.9-3-4.2c-0.3-0.2-0.7-0.6-1.2-1c0,0.7-0.1,1.3-0.2,1.8
			c-0.4,1.5-1.9,4.3-4.5,4.3c-1.5,0-3.1-1-3.8-2.4c-0.8-1.9,0.2-4,1.5-5c1.5-1.1,3.2-0.9,4.2-0.7c0.5,0.1,0.9,0.2,1.4,0.3
			C89.5,56.8,89,56,88.2,55c-2.4-2.9-6.1-3.2-7.5-3.2c-1.2,0-2.1,0.1-3,0.4c0.8,0.7,1.7,1.8,1.8,3.3c0,0.1,0.3,3.1-2,4.2
			c-1.5,0.8-3.5,0.4-4.4-0.9c-1.5-1.9,0.2-4.6,0.4-4.9c0.4-0.6,1.1-1.3,2.1-1.9c-0.8-0.4-2.4-0.9-4.8-0.7c-3.6,0.3-5.3,2.4-6.6,4.1
			c-0.4,0.5-0.8,1-1.2,1.4c-0.2,0.2-0.5,0.2-0.7,0c-0.2-0.2-0.2-0.5,0-0.7c0.4-0.3,0.7-0.8,1.1-1.3c1.4-1.7,3.3-4.1,7.3-4.5
			c3.2-0.3,5,0.5,5.8,1c0.1,0,0.1,0.1,0.2,0.1c1-0.4,2.3-0.6,3.9-0.6c1.6,0,5.6,0.3,8.3,3.6c1.1,1.4,1.7,2.6,2,3.7
			c1,0.5,1.7,1.2,2.1,1.5c1.8,1.6,2.9,3.4,3.4,5.2c2.3,0.7,4.4,2.5,5.6,4.8c0.6,1.1,2.3,5.9,1.1,8.6
			C102.6,79.4,101.7,79.7,100.8,79.7z M93.8,65.5c-0.6,0-1.3,0.1-2,0.4c-1.2,0.6-2.8,2-2.5,3.5c0.1,0.6,0.6,1.2,1.2,1.7
			c0.8,0.5,1.8,0.7,2.5,0.5c2-0.5,2.5-3.3,2.6-4.2c0.1-0.6,0.1-1.2,0-1.7c-0.3-0.1-0.6-0.1-0.9-0.2C94.4,65.5,94.1,65.5,93.8,65.5z
			 M87,58.2c-0.7,0-1.5,0.1-2.2,0.7c-1.1,0.8-1.9,2.4-1.2,3.9c0.5,1.2,1.8,1.8,2.8,1.8c0,0,0,0,0,0c1.9,0,3.2-2.2,3.6-3.6
			c0.2-0.6,0.2-1.3,0.1-2.2c-0.5-0.2-1.1-0.4-1.8-0.5C87.9,58.2,87.4,58.2,87,58.2z M76.6,52.5c-1.2,0.5-1.8,1.2-2.2,1.8
			c-0.1,0.1-1.5,2.4-0.5,3.8c0.7,0.9,2.2,1.1,3.2,0.6c1.7-0.8,1.4-3.1,1.4-3.2C78.5,54.1,77.4,53.1,76.6,52.5z"/>
	</g>
</g>
</svg>
