<?xml version="1.0" encoding="utf-8"?>
<!-- Generator: Adobe Illustrator 22.0.1, SVG Export Plug-In . SVG Version: 6.00 Build 0)  -->
<svg version="1.0" id="Layer_1" xmlns="http://www.w3.org/2000/svg" xmlns:xlink="http://www.w3.org/1999/xlink" x="0px" y="0px"
	 viewBox="0 0 105.2 94.3" style="enable-background:new 0 0 105.2 94.3;" xml:space="preserve">
<style type="text/css">
	.st0{fill:#F7D409;}
	.st1{fill:#0FB2DE;}
	.st2{fill:#602C86;}
	.st3{fill:#72BF44;}
	.st4{fill:#0A0700;}
</style>
<g>
	<g>
		<g>
			<polygon class="st0" points="47.8,14.7 10.9,57.5 8.4,74.9 25.7,70.2 62.1,30 			"/>
		</g>
		<g>
			<polygon class="st1" points="10.9,57.5 15.6,60.9 51.5,19 47.6,14.9 			"/>
		</g>
		<g>
			<polygon class="st2" points="16,60.9 20.6,64.8 57.5,25.2 51.5,19 			"/>
		</g>
		<g>
			<polygon class="st3" points="20.9,65 25.7,69.9 62.1,30 57.5,25.2 			"/>
		</g>
		<g>
			<polygon class="st0" points="47.6,14.7 62.1,29.6 69.8,21.8 53.7,7.6 			"/>
		</g>
	</g>
	<g>
		<g>
			<g>
				<path class="st4" d="M14.7,73.4c-0.1,0-0.2,0-0.3-0.1l-5.1-4.1c-0.1-0.1-0.2-0.3-0.2-0.5l1.3-11.3c0-0.1,0.1-0.2,0.1-0.3
					L53.3,7.3c0.1-0.1,0.2-0.2,0.4-0.2c0.1,0,0.3,0,0.4,0.1l16.1,14.2c0.1,0.1,0.2,0.2,0.2,0.4c0,0.1,0,0.3-0.1,0.4L26.1,70.5
					c-0.1,0.1-0.2,0.1-0.3,0.2l-11.1,2.7C14.7,73.4,14.7,73.4,14.7,73.4z M10.2,68.6l4.6,3.7l10.6-2.6l43.6-47.8L53.8,8.4L11.4,57.7
					L10.2,68.6z"/>
			</g>
			<g>
				<path class="st4" d="M62.3,30.6c-0.1,0-0.3-0.1-0.4-0.2L47.3,15c-0.2-0.2-0.2-0.5,0-0.7c0.2-0.2,0.5-0.2,0.7,0l14.6,15.5
					c0.2,0.2,0.2,0.5,0,0.7C62.5,30.6,62.4,30.6,62.3,30.6z"/>
			</g>
		</g>
		<g>
			<g>
				<polygon class="st4" points="9.5,68.7 14.8,73 7.1,76.5 				"/>
				<path class="st4" d="M7.1,77c-0.1,0-0.2,0-0.3-0.1c-0.2-0.1-0.2-0.3-0.2-0.5L9,68.5c0-0.2,0.2-0.3,0.3-0.3
					c0.2-0.1,0.3,0,0.5,0.1l5.3,4.3c0.1,0.1,0.2,0.3,0.2,0.5c0,0.2-0.1,0.3-0.3,0.4L7.3,77C7.3,77,7.2,77,7.1,77z M9.8,69.6l-1.8,6
					l5.9-2.7L9.8,69.6z"/>
			</g>
			<g>
				<path class="st4" d="M16,61.3c-0.1,0-0.2,0-0.3-0.1c-0.2-0.2-0.2-0.5-0.1-0.7l35.5-41.8c0.2-0.2,0.5-0.2,0.7-0.1
					c0.2,0.2,0.2,0.5,0.1,0.7L16.4,61.1C16.3,61.3,16.1,61.3,16,61.3z"/>
			</g>
			<g>
				<path class="st4" d="M20.6,65.3c-0.1,0-0.3,0-0.4-0.1c-0.2-0.2-0.2-0.5,0-0.7l36.9-39.5c0.2-0.2,0.5-0.2,0.7,0
					c0.2,0.2,0.2,0.5,0,0.7L21,65.1C20.9,65.2,20.7,65.3,20.6,65.3z"/>
			</g>
			<g>
				<path class="st4" d="M25.7,70.7c-0.2,0-0.3-0.1-0.4-0.2C22.5,66.3,10.7,58,10.6,58c-0.2-0.2-0.3-0.5-0.1-0.7
					c0.2-0.2,0.5-0.3,0.7-0.1c0.5,0.3,12.1,8.4,15,12.8c0.2,0.2,0.1,0.6-0.1,0.7C25.9,70.7,25.8,70.7,25.7,70.7z"/>
			</g>
		</g>
	</g>
	<g>
		<path class="st4" d="M97.8,81.8c-1.2,0-2.6-0.5-3.4-1.5c-0.2-0.2-0.2-0.5,0.1-0.7c0.2-0.2,0.5-0.2,0.7,0.1c0.9,1.1,2.7,1.3,3.5,1
			c1-0.4,1.2-1,1.2-1.4c0.2-1.3-0.8-3-1.9-4c-0.9-0.9-2.1-1.3-6.3-1.1c-3.7,0.2-6.6,0.7-9.3,1.2l-1.9,0.4c-5.4,1.1-7.8,1.6-9.6,0.1
			c-1.1-0.9-1.1-2.6-0.7-3.3c0.5-0.8,1.6-0.9,3.4-1.1c0.7-0.1,1.5-0.1,2.3-0.3c3.6-0.5,5.4-1.1,5.3-1.6c0-0.3-0.4-0.8-2.2-1.5
			c-3.6-1.4-6.8-0.8-14.5,0.5l-1.1,0.2c-5.1,0.9-6.9,1.3-8.5-0.1c-0.8-0.6-1.7-1.7-2.2-2.9c-1.1-0.1-1.8,0.1-2.5,0.3
			c-0.9,0.3-1.9,0.6-3.6,0c-5-1.6-10.7-0.7-11.3,1.1c-0.2,0.5,0.1,1.5,0.6,1.9c0.6,0.6,1.7,0.5,2.9,0.5c0.7,0,1.4,0,2,0.1
			c1,0.1,2,0.7,2.6,1.5c0.4,0.5,0.5,1.1,0.4,1.6c-1.1,4.8-8.2,4.5-11.2,4.3c-0.3,0-0.6,0-0.8,0l-1.5,0c-5.9-0.1-12.5-0.2-22.9,0.1
			c0,0,0,0,0,0c-0.3,0-0.5-0.2-0.5-0.5c0-0.3,0.2-0.5,0.5-0.5c10.3-0.3,17-0.2,22.9-0.1l1.5,0c0.2,0,0.5,0,0.8,0
			c2.8,0.1,9.3,0.4,10.2-3.5c0.1-0.3-0.1-0.6-0.2-0.8c-0.4-0.5-1.1-0.9-1.8-1c-0.6-0.1-1.2-0.1-1.9-0.1c-1.3,0-2.6,0.1-3.6-0.8
			c-0.8-0.7-1.2-2.1-0.9-3c0.9-2.6,7.3-3.5,12.6-1.8c1.4,0.5,2.1,0.2,3,0c0.7-0.2,1.4-0.4,2.5-0.4c-0.2-0.8-0.1-1.7,0.2-2.5
			c0.9-2.1,3.3-2.7,4-2.8c0.7-0.1,2.9-0.5,4.2,1c1.1,1.2,1.2,3.3,0.3,4.6c-1.4,2-5,1.4-7,1c0.4,0.8,1,1.5,1.6,1.9
			c1.3,1,2.7,0.7,7.7-0.2l1.1-0.2c7.7-1.4,11.2-1.9,15-0.5c0.9,0.4,2.9,1.1,2.9,2.4c0,1.7-2.8,2.2-6.2,2.7c-0.9,0.1-1.7,0.2-2.4,0.3
			c-1.3,0.1-2.4,0.2-2.6,0.6c-0.2,0.4-0.3,1.4,0.5,2c1.3,1.1,3.8,0.6,8.7-0.4l1.9-0.4c2.7-0.5,5.7-1.1,9.5-1.3
			c4.1-0.2,5.9,0.1,7.1,1.4c1.1,1.2,2.4,3.2,2.1,4.9c-0.1,1-0.7,1.7-1.8,2.2C98.7,81.7,98.2,81.8,97.8,81.8z M53.5,64.8
			c0.1,0,0.2,0,0.3,0.1c1.7,0.4,5.3,1.1,6.4-0.5c0.6-0.9,0.5-2.4-0.2-3.3c-0.9-1.1-2.6-0.8-3.2-0.7c-0.4,0.1-2.5,0.5-3.2,2.2
			C53.2,63.3,53.2,64.1,53.5,64.8z"/>
	</g>
</g>
</svg>
