<?xml version="1.0" encoding="utf-8"?>
<!-- Generator: Adobe Illustrator 22.0.1, SVG Export Plug-In . SVG Version: 6.00 Build 0)  -->
<svg version="1.0" id="Layer_1" xmlns="http://www.w3.org/2000/svg" xmlns:xlink="http://www.w3.org/1999/xlink" x="0px" y="0px"
	 viewBox="0 0 105.2 94.3" style="enable-background:new 0 0 105.2 94.3;" xml:space="preserve">
<style type="text/css">
	.st0{fill:#F7D409;}
	.st1{fill:#F15C22;}
	.st2{fill:#0A0700;}
</style>
<g>
	<g>
		<path class="st0" d="M65.8,67.2c0,0,1.4,0.6,1.9-0.8s1.6-2.1,2-0.7c0.4,1.4,1.7,5.3,2.8,3.7c1.1-1.6,2-2.1,2-2.1l5.8,9.3l6-9.1
			l0-12.5c0,0,2.6-1.5,3-1.8c0.4-0.3,5.8-5.5,5.8-5.5s3.3-3.1,2.8-4.9c-0.5-1.8-2.2-3.2-3.4-3.1c-1.3,0.1-8.5,1.9-8.5,1.9l-0.2-8.1
			l1.8-14c0,0-0.2-2.6-1.4-3s-3.8-0.4-4.3,1.2C81.4,19.5,79,28.4,79,28.4s-0.8-2.3-2.9-2.1c-2,0.2-3.7,2-3.7,2l-1.8-0.3
			c0,0-2,0.6-3.1,1.5c-1.1,0.8-1.7,1.9-1.7,1.9L61,22.8c0,0-1.7-1.5-3.2-0.9s-1.7,2.2-1.4,3.2c0.3,1,3.1,11.4,3.1,11.4V46
			c0,0-0.3,3.4,0.8,5.2c1.1,1.8,2.9,4.2,4.5,5.3L65,67.2H65.8z"/>
	</g>
	<g>
		<path class="st1" d="M21.4,67.5h6.3c0,0,1.7,0.2,2.1-1.8c0.5-2,1.5-3.9,2.7-3.1s3,3.5,4,1.1s0-4.2,1.8-4.1
			c1.9,0.1,3.2,0.1,3.2-2.1s-0.3-13.1-0.3-13.1l5.9-4.1l5.7-5.8c0,0,1.8-3.1,0-5.1c-1.8-1.9-4.4-0.9-5.6-0.8c-1.2,0-5.6,1.5-5.6,1.5
			l0.1-8.9l1.8-14.8c0,0,0-2.7-1.9-3.2s-3.2,0.4-3.8,1.5C37.2,6,35,16.2,35,16.2s-1-2.3-2.3-2.2c-1.2,0.1-4.2,0.9-4.6,2.1
			c0,0-2-0.5-2.8,0c-0.9,0.5-2.6,2.1-2.9,2.6c-0.3,0.5-0.9,0.8-0.9,0.8l-4.8-9.5c0,0-2.8-1.5-3.9,0.1s-0.6,3.5,0,4.5
			c0.6,1,3,10.3,3,10.3l-0.6,3.1l0.2,7.5c0,0-0.1,3.4,0.6,4.4s2.8,4.2,2.8,4.2l2.1,1.7l0.4,0.8V67.5z"/>
	</g>
	<g>
		<g>
			<g>
				<path class="st2" d="M21.4,68c-0.3,0-0.5-0.2-0.5-0.5V46.4c-1.1-0.8-5.9-4.6-5.9-9.4V24.8l-3.2-12.4c-0.4-1.5,0.4-3.1,1.9-3.6
					c1.5-0.5,3.1,0.1,3.8,1.6l4.6,8.8c0.1,0.2,0,0.5-0.2,0.6c-0.2,0.1-0.5,0-0.6-0.2l-4.6-8.8c-0.5-1-1.6-1.5-2.7-1.1
					c-1,0.4-1.6,1.5-1.3,2.5L16,24.7l0,12.2c0,4.9,5.6,8.8,5.7,8.8c0.1,0.1,0.2,0.2,0.2,0.4v21.4C21.8,67.8,21.6,68,21.4,68z"/>
			</g>
			<g>
				<path class="st2" d="M41.9,68c-0.3,0-0.5-0.2-0.5-0.5l-0.5-23.1c0-0.2,0.1-0.4,0.3-0.4c3.9-1.6,8.8-6.8,11.4-9.7
					c1-1.1,1.1-2.6,0.4-3.9c-0.7-1.3-2.3-2-3.7-1.6l-7.2,1.9c-0.1,0-0.3,0-0.4-0.1c-0.1-0.1-0.2-0.2-0.2-0.4l-0.2-8.4l1.9-15.3
					c0.2-1.3-0.7-2.5-1.9-2.8c-1.4-0.3-2.7,0.5-3.1,1.9l-2.7,10.7c-0.1,0.2-0.3,0.4-0.6,0.3c-0.2-0.1-0.4-0.3-0.3-0.6l2.7-10.7
					c0.5-1.8,2.4-3,4.2-2.5c1.7,0.4,2.8,2.1,2.6,3.8l-1.8,15.2l0.2,7.8l6.7-1.7c1.9-0.5,3.8,0.4,4.8,2c0.9,1.6,0.7,3.6-0.5,4.9
					c-2.6,2.9-7.5,8.1-11.5,9.9l0.5,22.8C42.3,67.8,42.1,68,41.9,68C41.9,68,41.9,68,41.9,68z"/>
			</g>
			<g>
				<path class="st2" d="M25.6,28.1C25.6,28.1,25.6,28.1,25.6,28.1c-1,0-1.9-0.5-2.6-1.4c-2.6-3.2-2.6-7.1,0-9.6
					c2.5-2.4,4-1.9,4.9-1.6l0.3,0.1c0.2,0.1,0.4,0.3,0.3,0.6s-0.3,0.4-0.6,0.3c-0.1,0-0.2-0.1-0.3-0.1c-0.8-0.3-1.9-0.6-4,1.4
					c-2.3,2.1-2.2,5.5,0,8.3c0.6,0.7,1.2,1,1.8,1.1c0,0,0,0,0.1,0c1.2,0,2.2-1.1,2.2-1.1c0.2-0.2,0.5-0.2,0.7,0
					c0.2,0.2,0.2,0.5,0,0.7C28.4,26.8,27.2,28.1,25.6,28.1z"/>
			</g>
			<g>
				<path class="st2" d="M31.3,29.2c-0.6,0-1.2-0.2-1.8-0.5c-1.3-0.8-2.2-2.5-2.2-4.1l0-0.9c0-3.9,0-7.8,1.5-8.9
					c1.3-0.9,3.1-1.8,4.6-1.1c1.1,0.4,1.7,1.5,2,3.3c0,0,0,0.1,0,0.1c0,1.1,0,10.4-2.7,11.8C32.3,29.1,31.8,29.2,31.3,29.2z
					 M32.3,14.4c-1.1,0-2.3,0.7-3,1.2c-1.2,0.8-1.2,5.7-1.1,8.1l0,0.9c0,1.3,0.7,2.7,1.8,3.3c0.5,0.3,1.4,0.6,2.4,0.1
					c1.6-0.8,2.2-7.1,2.2-10.9c-0.2-1.4-0.7-2.2-1.5-2.6C32.8,14.4,32.6,14.4,32.3,14.4z"/>
			</g>
			<g>
				<path class="st2" d="M32.4,44.1c-0.2,0-0.4-0.2-0.5-0.4c-1.8-9.9,3.8-13,4.1-13.1c0.2-0.1,0.5,0,0.6,0.2c0.1,0.2,0,0.5-0.2,0.6
					c-0.2,0.1-5.3,2.9-3.6,12.1C32.9,43.8,32.7,44,32.4,44.1C32.5,44.1,32.4,44.1,32.4,44.1z"/>
			</g>
			<g>
				<path class="st2" d="M18.2,24.8c-0.2,0-0.3-0.1-0.4-0.3c-0.1-0.2,0-0.5,0.2-0.6c0.3-0.1,2.5-1.1,4-0.6c0.2,0.1,0.4,0.3,0.3,0.6
					c-0.1,0.2-0.3,0.4-0.6,0.3c-0.9-0.3-2.7,0.3-3.3,0.6C18.3,24.8,18.3,24.8,18.2,24.8z"/>
			</g>
			<g>
				<path class="st2" d="M38.5,23.1c-0.1,0-0.2,0-0.2-0.1c-0.8-0.5-2.7-0.4-3.4-0.3c-0.2,0-0.5-0.1-0.5-0.4c0-0.3,0.1-0.5,0.4-0.5
					c0.3,0,2.7-0.4,4,0.4c0.2,0.1,0.3,0.4,0.1,0.6C38.8,23,38.6,23.1,38.5,23.1z"/>
			</g>
		</g>
		<g>
			<g>
				<path class="st2" d="M64.8,68c-0.2,0-0.4-0.2-0.4-0.4V56.7c-1-0.7-5.3-4.3-5.3-8.9V36.5l-3.2-11.7c-0.4-1.5,0.4-2.9,1.9-3.4
					c1.5-0.5,3.1,0.1,3.8,1.5l4.6,8.2c0.1,0.2,0,0.5-0.2,0.6c-0.2,0.1-0.5,0-0.6-0.2l-4.6-8.3c-0.5-1-1.6-1.4-2.7-1
					c-1,0.3-1.6,1.4-1.3,2.4l3.2,11.8c0,0,0,0.1,0,0.1v11.4c0,4.6,5.1,8.2,5.1,8.3c0.1,0.1,0.2,0.2,0.2,0.4v11
					C65.3,67.8,65.1,68,64.8,68z"/>
			</g>
			<g>
				<path class="st2" d="M86.3,77.1c-0.2,0-0.4-0.2-0.4-0.4l0-21.6c0-0.2,0.1-0.4,0.3-0.4c3.2-1.3,6.7-5.1,9.2-7.8
					c0.5-0.5,0.9-1,1.3-1.4c0.9-1,1.1-2.4,0.4-3.6c-0.7-1.2-2.3-1.8-3.8-1.5L86,42c-0.1,0-0.3,0-0.4-0.1c-0.1-0.1-0.2-0.2-0.2-0.3
					l-0.2-7.9l1.9-14.4c0.2-1.2-0.7-2.3-1.9-2.6c-1.4-0.3-2.8,0.5-3.1,1.7l-2.7,10.1c-0.1,0.2-0.3,0.4-0.5,0.3
					c-0.2-0.1-0.4-0.3-0.3-0.5l2.7-10.1c0.5-1.7,2.3-2.8,4.2-2.4c1.7,0.4,2.8,1.9,2.6,3.6l-1.8,14.3l0.2,7.3l6.7-1.6
					c1.8-0.4,3.8,0.3,4.7,1.9c0.9,1.5,0.7,3.4-0.5,4.7c-0.4,0.4-0.8,0.9-1.3,1.4c-2.5,2.8-5.9,6.5-9.3,7.9l0,21.3
					C86.7,76.9,86.5,77.1,86.3,77.1C86.3,77.1,86.3,77.1,86.3,77.1z"/>
			</g>
			<g>
				<path class="st2" d="M69.6,39.6C69.6,39.6,69.6,39.6,69.6,39.6c-1,0-1.8-0.5-2.6-1.3c-2.6-3-2.6-6.8,0-9c2.5-2.2,4-1.8,4.9-1.5
					l0.3,0.1c0.2,0.1,0.4,0.3,0.3,0.5c-0.1,0.2-0.3,0.4-0.5,0.3c-0.1,0-0.2-0.1-0.3-0.1c-0.9-0.3-1.9-0.6-4.1,1.3
					c-2.2,2-2.2,5.2,0,7.8c0.6,0.6,1.2,1,1.8,1c1.2,0,2.3-1,2.3-1c0.2-0.2,0.5-0.2,0.6,0c0.2,0.2,0.2,0.5,0,0.6
					C72.4,38.3,71.2,39.6,69.6,39.6z"/>
			</g>
			<g>
				<path class="st2" d="M75.3,40.6c-0.6,0-1.3-0.2-1.9-0.6c-1.3-0.8-2.1-2.3-2.1-3.8l0-0.8c0-3.7,0-7.4,1.5-8.3
					c1.3-0.8,3.2-1.7,4.6-1c1,0.4,1.7,1.5,2,3.1c0,0,0,0.1,0,0.1c0,1,0,9.8-2.7,11.1C76.3,40.5,75.8,40.6,75.3,40.6z M76.3,26.7
					c-1.1,0-2.3,0.7-3,1.1c-1.2,0.8-1.2,5.4-1.1,7.6l0,0.8c0,1.2,0.7,2.4,1.7,3c0.6,0.4,1.4,0.7,2.5,0.2c1.6-0.8,2.2-6.7,2.2-10.2
					c-0.2-1.3-0.7-2.1-1.4-2.4C76.9,26.7,76.6,26.7,76.3,26.7z"/>
			</g>
			<g>
				<path class="st2" d="M76.4,54.6c-0.2,0-0.4-0.1-0.4-0.4c-1.8-9.3,4-12.3,4.1-12.4c0.2-0.1,0.5,0,0.6,0.2c0.1,0.2,0,0.5-0.2,0.6
					c-0.2,0.1-5.3,2.7-3.6,11.4C76.9,54.3,76.7,54.6,76.4,54.6C76.5,54.6,76.4,54.6,76.4,54.6z"/>
			</g>
			<g>
				<path class="st2" d="M62.2,36.5c-0.2,0-0.3-0.1-0.4-0.3c-0.1-0.2,0-0.5,0.2-0.6c0.3-0.1,2.5-1,3.9-0.6c0.2,0.1,0.4,0.3,0.3,0.6
					c-0.1,0.2-0.3,0.4-0.6,0.3c-0.9-0.3-2.7,0.3-3.3,0.5C62.3,36.4,62.2,36.5,62.2,36.5z"/>
			</g>
			<g>
				<path class="st2" d="M82.5,34.9c-0.1,0-0.2,0-0.2-0.1c-0.8-0.5-2.7-0.3-3.4-0.2c-0.3,0-0.5-0.1-0.5-0.4c0-0.2,0.1-0.5,0.4-0.5
					c0.3,0,2.7-0.4,4,0.4c0.2,0.1,0.3,0.4,0.2,0.6C82.8,34.8,82.6,34.9,82.5,34.9z"/>
			</g>
		</g>
	</g>
</g>
</svg>
